<svg xmlns="http://www.w3.org/2000/svg" viewBox="0 0 1600 1000" role="img" aria-labelledby="title">
  <title id="title">Desk grid paper texture</title>
  <rect width="1600" height="1000" fill="#fff7df"/>
  <path d="M0 0h1600M0 100h1600M0 200h1600M0 300h1600M0 400h1600M0 500h1600M0 600h1600M0 700h1600M0 800h1600M0 900h1600M0 1000h1600M0 0v1000M100 0v1000M200 0v1000M300 0v1000M400 0v1000M500 0v1000M600 0v1000M700 0v1000M800 0v1000M900 0v1000M1000 0v1000M1100 0v1000M1200 0v1000M1300 0v1000M1400 0v1000M1500 0v1000M1600 0v1000" stroke="#101010" stroke-width="4" opacity=".12"/>
</svg>
